<mxfile host="app.diagrams.net" agent="Mozilla/5.0 (Windows NT 10.0; Win64; x64) AppleWebKit/537.36 (KHTML, like Gecko) Chrome/140.0.0.0 Safari/537.36" version="28.2.7">
  <diagram name="PÃ¡gina-1" id="0JbOWPOv06Nll646adNd">
    <mxGraphModel dx="1281" dy="527" grid="1" gridSize="10" guides="1" tooltips="1" connect="1" arrows="1" fold="1" page="1" pageScale="1" pageWidth="1169" pageHeight="827" math="0" shadow="0">
      <root>
        <mxCell id="0" />
        <mxCell id="1" parent="0" />
        <mxCell id="cej68eWl56oOY3Sh1ooo-2" value="" style="shape=actor;whiteSpace=wrap;html=1;" vertex="1" parent="1">
          <mxGeometry x="40" y="223" width="40" height="60" as="geometry" />
        </mxCell>
        <mxCell id="cej68eWl56oOY3Sh1ooo-3" value="S3" style="outlineConnect=0;dashed=0;verticalLabelPosition=bottom;verticalAlign=top;align=center;html=1;shape=mxgraph.aws3.s3;fillColor=#E05243;gradientColor=none;" vertex="1" parent="1">
          <mxGeometry x="160" y="221.25" width="60" height="63.5" as="geometry" />
        </mxCell>
        <mxCell id="cej68eWl56oOY3Sh1ooo-18" style="edgeStyle=orthogonalEdgeStyle;rounded=0;orthogonalLoop=1;jettySize=auto;html=1;exitX=0.5;exitY=0;exitDx=0;exitDy=0;exitPerimeter=0;" edge="1" parent="1" source="cej68eWl56oOY3Sh1ooo-4">
          <mxGeometry relative="1" as="geometry">
            <mxPoint x="361" y="170" as="targetPoint" />
          </mxGeometry>
        </mxCell>
        <mxCell id="cej68eWl56oOY3Sh1ooo-19" style="edgeStyle=orthogonalEdgeStyle;rounded=0;orthogonalLoop=1;jettySize=auto;html=1;exitX=1;exitY=0.5;exitDx=0;exitDy=0;exitPerimeter=0;entryX=0;entryY=0.5;entryDx=0;entryDy=0;" edge="1" parent="1" source="cej68eWl56oOY3Sh1ooo-4" target="cej68eWl56oOY3Sh1ooo-6">
          <mxGeometry relative="1" as="geometry" />
        </mxCell>
        <mxCell id="cej68eWl56oOY3Sh1ooo-4" value="Lambda" style="outlineConnect=0;dashed=0;verticalLabelPosition=bottom;verticalAlign=top;align=center;html=1;shape=mxgraph.aws3.lambda_function;fillColor=#F58534;gradientColor=none;" vertex="1" parent="1">
          <mxGeometry x="331" y="226.5" width="60" height="53" as="geometry" />
        </mxCell>
        <mxCell id="cej68eWl56oOY3Sh1ooo-5" value="Dynamo DB" style="outlineConnect=0;dashed=0;verticalLabelPosition=bottom;verticalAlign=top;align=center;html=1;shape=mxgraph.aws3.dynamo_db;fillColor=#2E73B8;gradientColor=none;" vertex="1" parent="1">
          <mxGeometry x="338" y="90" width="53" height="60" as="geometry" />
        </mxCell>
        <mxCell id="cej68eWl56oOY3Sh1ooo-11" style="edgeStyle=orthogonalEdgeStyle;rounded=0;orthogonalLoop=1;jettySize=auto;html=1;exitX=0.5;exitY=0;exitDx=0;exitDy=0;" edge="1" parent="1" source="cej68eWl56oOY3Sh1ooo-6">
          <mxGeometry relative="1" as="geometry">
            <mxPoint x="513" y="200" as="targetPoint" />
          </mxGeometry>
        </mxCell>
        <mxCell id="cej68eWl56oOY3Sh1ooo-6" value="" style="rhombus;" vertex="1" parent="1">
          <mxGeometry x="465" y="229.5" width="95" height="47" as="geometry" />
        </mxCell>
        <mxCell id="cej68eWl56oOY3Sh1ooo-21" style="edgeStyle=orthogonalEdgeStyle;rounded=0;orthogonalLoop=1;jettySize=auto;html=1;exitX=0.5;exitY=0;exitDx=0;exitDy=0;exitPerimeter=0;" edge="1" parent="1" source="cej68eWl56oOY3Sh1ooo-7">
          <mxGeometry relative="1" as="geometry">
            <mxPoint x="660" y="170" as="targetPoint" />
          </mxGeometry>
        </mxCell>
        <mxCell id="cej68eWl56oOY3Sh1ooo-7" value="Lambda&lt;div&gt;&lt;br&gt;&lt;/div&gt;" style="outlineConnect=0;dashed=0;verticalLabelPosition=bottom;verticalAlign=top;align=center;html=1;shape=mxgraph.aws3.lambda_function;fillColor=#F58534;gradientColor=none;" vertex="1" parent="1">
          <mxGeometry x="630" y="226.5" width="60" height="53" as="geometry" />
        </mxCell>
        <mxCell id="cej68eWl56oOY3Sh1ooo-8" value="SNS (falha)" style="outlineConnect=0;dashed=0;verticalLabelPosition=bottom;verticalAlign=top;align=center;html=1;shape=mxgraph.aws3.sns;fillColor=#D9A741;gradientColor=none;" vertex="1" parent="1">
          <mxGeometry x="630" y="90.88" width="60" height="58.25" as="geometry" />
        </mxCell>
        <mxCell id="cej68eWl56oOY3Sh1ooo-28" style="edgeStyle=orthogonalEdgeStyle;rounded=0;orthogonalLoop=1;jettySize=auto;html=1;" edge="1" parent="1" source="cej68eWl56oOY3Sh1ooo-9" target="cej68eWl56oOY3Sh1ooo-24">
          <mxGeometry relative="1" as="geometry" />
        </mxCell>
        <mxCell id="cej68eWl56oOY3Sh1ooo-9" value="" style="points=[[0.25,0,0],[0.5,0,0],[0.75,0,0],[1,0.25,0],[1,0.5,0],[1,0.75,0],[0.75,1,0],[0.5,1,0],[0.25,1,0],[0,0.75,0],[0,0.5,0],[0,0.25,0]];shape=mxgraph.bpmn.task2;whiteSpace=wrap;rectStyle=rounded;size=10;html=1;container=1;expand=0;collapsible=0;taskMarker=abstract;isLoopMultiParallel=1;" vertex="1" parent="1">
          <mxGeometry x="790" y="229.5" width="70" height="47" as="geometry" />
        </mxCell>
        <mxCell id="cej68eWl56oOY3Sh1ooo-10" value="EC2" style="outlineConnect=0;dashed=0;verticalLabelPosition=bottom;verticalAlign=top;align=center;html=1;shape=mxgraph.aws3.ec2;fillColor=#F58534;gradientColor=none;" vertex="1" parent="1">
          <mxGeometry x="800" y="340" width="50" height="50" as="geometry" />
        </mxCell>
        <mxCell id="cej68eWl56oOY3Sh1ooo-12" value="Pagamento&lt;div&gt;aprovado?&lt;/div&gt;" style="text;html=1;whiteSpace=wrap;strokeColor=none;fillColor=none;align=center;verticalAlign=middle;rounded=0;" vertex="1" parent="1">
          <mxGeometry x="482.5" y="160" width="60" height="30" as="geometry" />
        </mxCell>
        <mxCell id="cej68eWl56oOY3Sh1ooo-15" value="Cliente" style="text;html=1;whiteSpace=wrap;strokeColor=none;fillColor=none;align=center;verticalAlign=middle;rounded=0;" vertex="1" parent="1">
          <mxGeometry x="30" y="279.5" width="60" height="30" as="geometry" />
        </mxCell>
        <mxCell id="cej68eWl56oOY3Sh1ooo-16" style="edgeStyle=orthogonalEdgeStyle;rounded=0;orthogonalLoop=1;jettySize=auto;html=1;entryX=0;entryY=0.5;entryDx=0;entryDy=0;entryPerimeter=0;" edge="1" parent="1" source="cej68eWl56oOY3Sh1ooo-2" target="cej68eWl56oOY3Sh1ooo-3">
          <mxGeometry relative="1" as="geometry" />
        </mxCell>
        <mxCell id="cej68eWl56oOY3Sh1ooo-17" style="edgeStyle=orthogonalEdgeStyle;rounded=0;orthogonalLoop=1;jettySize=auto;html=1;exitX=1;exitY=0.5;exitDx=0;exitDy=0;exitPerimeter=0;entryX=0;entryY=0.5;entryDx=0;entryDy=0;entryPerimeter=0;" edge="1" parent="1" source="cej68eWl56oOY3Sh1ooo-3" target="cej68eWl56oOY3Sh1ooo-4">
          <mxGeometry relative="1" as="geometry" />
        </mxCell>
        <mxCell id="cej68eWl56oOY3Sh1ooo-20" style="edgeStyle=orthogonalEdgeStyle;rounded=0;orthogonalLoop=1;jettySize=auto;html=1;entryX=0;entryY=0.5;entryDx=0;entryDy=0;entryPerimeter=0;" edge="1" parent="1" source="cej68eWl56oOY3Sh1ooo-6" target="cej68eWl56oOY3Sh1ooo-7">
          <mxGeometry relative="1" as="geometry" />
        </mxCell>
        <mxCell id="cej68eWl56oOY3Sh1ooo-22" style="edgeStyle=orthogonalEdgeStyle;rounded=0;orthogonalLoop=1;jettySize=auto;html=1;exitX=1;exitY=0.5;exitDx=0;exitDy=0;exitPerimeter=0;entryX=0;entryY=0.5;entryDx=0;entryDy=0;entryPerimeter=0;" edge="1" parent="1" source="cej68eWl56oOY3Sh1ooo-7" target="cej68eWl56oOY3Sh1ooo-9">
          <mxGeometry relative="1" as="geometry" />
        </mxCell>
        <mxCell id="cej68eWl56oOY3Sh1ooo-23" style="edgeStyle=orthogonalEdgeStyle;rounded=0;orthogonalLoop=1;jettySize=auto;html=1;entryX=0.5;entryY=0;entryDx=0;entryDy=0;entryPerimeter=0;" edge="1" parent="1" source="cej68eWl56oOY3Sh1ooo-9" target="cej68eWl56oOY3Sh1ooo-10">
          <mxGeometry relative="1" as="geometry" />
        </mxCell>
        <mxCell id="cej68eWl56oOY3Sh1ooo-30" style="edgeStyle=orthogonalEdgeStyle;rounded=0;orthogonalLoop=1;jettySize=auto;html=1;entryX=0;entryY=0.5;entryDx=0;entryDy=0;" edge="1" parent="1" source="cej68eWl56oOY3Sh1ooo-24" target="cej68eWl56oOY3Sh1ooo-26">
          <mxGeometry relative="1" as="geometry">
            <mxPoint x="1090" y="253" as="targetPoint" />
          </mxGeometry>
        </mxCell>
        <mxCell id="cej68eWl56oOY3Sh1ooo-24" value="Logs s3" style="sketch=0;outlineConnect=0;fontColor=#232F3E;gradientColor=none;fillColor=#7AA116;strokeColor=none;dashed=0;verticalLabelPosition=bottom;verticalAlign=top;align=center;html=1;fontSize=12;fontStyle=0;aspect=fixed;pointerEvents=1;shape=mxgraph.aws4.bucket;" vertex="1" parent="1">
          <mxGeometry x="960" y="228.75" width="46.63" height="48.5" as="geometry" />
        </mxCell>
        <mxCell id="cej68eWl56oOY3Sh1ooo-25" value="SNS" style="outlineConnect=0;dashed=0;verticalLabelPosition=bottom;verticalAlign=top;align=center;html=1;shape=mxgraph.aws3.sns;fillColor=#D9A741;gradientColor=none;" vertex="1" parent="1">
          <mxGeometry x="946.63" y="90.88" width="60" height="58.25" as="geometry" />
        </mxCell>
        <mxCell id="cej68eWl56oOY3Sh1ooo-26" value="" style="ellipse;whiteSpace=wrap;html=1;" vertex="1" parent="1">
          <mxGeometry x="1100" y="228" width="50" height="50" as="geometry" />
        </mxCell>
        <mxCell id="cej68eWl56oOY3Sh1ooo-27" value="FIM" style="text;html=1;whiteSpace=wrap;strokeColor=none;fillColor=none;align=center;verticalAlign=middle;rounded=0;" vertex="1" parent="1">
          <mxGeometry x="1095" y="279.5" width="60" height="30" as="geometry" />
        </mxCell>
        <mxCell id="cej68eWl56oOY3Sh1ooo-29" style="edgeStyle=orthogonalEdgeStyle;rounded=0;orthogonalLoop=1;jettySize=auto;html=1;entryX=0.611;entryY=1.358;entryDx=0;entryDy=0;entryPerimeter=0;" edge="1" parent="1" source="cej68eWl56oOY3Sh1ooo-24" target="cej68eWl56oOY3Sh1ooo-25">
          <mxGeometry relative="1" as="geometry" />
        </mxCell>
      </root>
    </mxGraphModel>
  </diagram>
</mxfile>
